# xmcd
#
# Track frame offsets:
#	150
#	16013
#	32273
#	48214
#	61971
#	71581
#	90671
#	107498
#	125981
#	142573
#	158991
#	171972
#	185325
#	204031
#	220155
#	233955
#	247437
#	257436
#	273577
#	286067
#
# Disc length: 4017 seconds
#
# Revision: 1
# Processed by: cddbd v1.5.2PL0 Copyright (c) Steve Scherf et al.
# Submitted via: EasyCDDAExtractor 6.0.0.1
#
DISCID=120faf14
DTITLE=Various Artist - Bolivia - Manta
DYEAR=1900
DGENRE=National Folk
TTITLE0=Sanjuanito Ecuador - Paucaicha
TTITLE1=Huaino Bolivia - Quilimayo
TTITLE2=Sanjuanito Ecuador - Peshte Longuita
TTITLE3=Huayco Peru - Pharilla Phallcha
TTITLE4=Sanjuanito Ecuador - Manza Pata
TTITLE5=Huayco Peru Bolivia - Hojita Verde
TTITLE6=Sanjuanito Ecuador - Chimba Loma Cayadora
TTITLE7=Huayco Peru - Mi Polomar
TTITLE8=Cachuyapi Ecuador - Penas
TTITLE9=Huayco Bolivia - Recuerdos De Coepe
TTITLE10=Tonada Ecuador - La Venada
TTITLE11=Huaylash Peru - Huaylash
TTITLE12=Tonada Ecuador - El Casamiento De Los Runas
TTITLE13=Huayco Bolivia - Golpes De La Vida
TTITLE14=Cachuyaquil Ecuador - Husicama
TTITLE15=Huayco Bolivia - Los Mineros
TTITLE16=Sanjuanito Ecuador - Jatari Quilotoa
TTITLE17=Huayco Bolivia - Chofercito
TTITLE18=San Juanito Ecuador - Quilluaq
TTITLE19=Huayco Bolivia - Salaque
EXTD=
EXTT0=
EXTT1=
EXTT2=
EXTT3=
EXTT4=
EXTT5=
EXTT6=
EXTT7=
EXTT8=
EXTT9=
EXTT10=
EXTT11=
EXTT12=
EXTT13=
EXTT14=
EXTT15=
EXTT16=
EXTT17=
EXTT18=
EXTT19=
PLAYORDER=
